<svg width="878" height="796" viewBox="0 0 878 796" fill="none" xmlns="http://www.w3.org/2000/svg">
<path d="M810.025 455.312C825.937 408.194 834.391 359.267 835.136 309.994C836.014 259.273 829.868 204.429 792.992 166.412C756.783 129.239 698.677 116.534 644.013 114.369C621.87 113.51 599.253 114.083 578.233 120.451C535.791 133.314 506.044 167.431 468.395 189.368C395.715 231.716 297.519 226.701 227.648 272.773C209.76 284.774 194.19 299.38 181.57 315.996C130.646 382.144 126.66 473.779 165.538 546.343C204.416 618.906 282.505 671.569 368.918 690.928C455.331 710.287 548.574 697.503 628.648 662.272C721.944 621.214 780.05 542.617 810.025 455.312Z" fill="#F37022"/>
<path opacity="0.7" d="M810.025 455.312C825.937 408.194 834.391 359.267 835.136 309.994C836.014 259.273 829.868 204.429 792.992 166.412C756.783 129.239 698.677 116.534 644.013 114.369C621.87 113.51 599.253 114.083 578.233 120.451C535.791 133.314 506.044 167.431 468.395 189.368C395.715 231.716 297.519 226.701 227.648 272.773C209.76 284.774 194.19 299.38 181.57 315.996C130.646 382.144 126.66 473.779 165.538 546.343C204.416 618.906 282.505 671.569 368.918 690.928C455.331 710.287 548.574 697.503 628.648 662.272C721.944 621.214 780.05 542.617 810.025 455.312Z" fill="white"/>
<path d="M681.117 150.142V482.01C681.12 484.358 680.611 486.684 679.621 488.854C678.631 491.024 677.178 492.996 675.347 494.656C673.515 496.317 671.34 497.634 668.947 498.531C666.553 499.429 663.988 499.89 661.397 499.888H173.229C170.635 499.896 168.065 499.44 165.667 498.545C163.268 497.65 161.088 496.334 159.252 494.672C157.416 493.011 155.961 491.037 154.969 488.864C153.978 486.691 153.47 484.362 153.474 482.01V150.142C153.472 147.795 153.98 145.47 154.969 143.301C155.958 141.132 157.409 139.161 159.239 137.501C161.069 135.84 163.241 134.523 165.633 133.625C168.024 132.726 170.588 132.263 173.177 132.263H661.345C663.939 132.255 666.51 132.711 668.91 133.606C671.31 134.501 673.491 135.817 675.328 137.478C677.165 139.139 678.622 141.113 679.616 143.286C680.609 145.46 681.12 147.789 681.117 150.142Z" fill="white"/>
<path d="M681.117 160.394V481.978C681.124 484.329 680.619 486.658 679.631 488.832C678.643 491.006 677.191 492.981 675.359 494.645C673.527 496.309 671.351 497.629 668.955 498.528C666.559 499.428 663.991 499.89 661.397 499.888H173.229C171.376 499.892 169.531 499.656 167.751 499.188L681.117 160.394Z" fill="#263238"/>
<path opacity="0.9" d="M681.117 160.394V481.978C681.124 484.329 680.619 486.658 679.631 488.832C678.643 491.006 677.191 492.981 675.359 494.645C673.527 496.309 671.351 497.629 668.955 498.528C666.559 499.428 663.991 499.89 661.397 499.888H173.229C171.376 499.892 169.531 499.656 167.751 499.188L681.117 160.394Z" fill="white"/>
<path d="M545.782 340.051L572.456 329.162L566.767 300.331L537.336 298.198C533.649 289.294 528.696 280.865 522.603 273.124L531.805 259.003L537.687 249.944L514.859 229.407L489.309 243.321C474.636 234.141 457.968 227.909 440.422 225.045L433.065 198.491H400.825L393.344 225.236C383.379 227.055 373.671 229.885 364.405 233.674L341.243 215.589L314.816 231.907L325.808 257.777C318.818 264.341 312.771 271.68 307.809 279.619L277.395 276.833L266.455 304.359L291.496 319.849C290.279 326.311 289.691 332.858 289.74 339.414C289.529 342.112 289.529 344.82 289.74 347.518L263.154 361.05L271.583 389.244H301.611C304.489 394.855 307.86 400.248 311.69 405.371C313.657 407.992 315.735 410.545 317.924 413.029L304.965 437.307L329.777 456.172L353.711 439.917C362.811 444.685 372.533 448.402 382.65 450.982L387.444 477.218L419.684 479.813L429.342 455.073C439.871 454.124 450.243 452.067 460.248 448.944L480.705 467.475L508.713 452.829L501.004 427.548C509.144 421.362 516.389 414.269 522.568 406.438L550.945 411.054L564.607 384.532L542.305 368.23C544.724 359 545.891 349.537 545.782 340.051ZM472.118 340.051C472.117 351.54 467.725 362.673 459.689 371.556C451.653 380.439 440.47 386.522 428.044 388.772C415.617 391.021 402.715 389.297 391.533 383.893C380.35 378.488 371.579 369.738 366.712 359.131C361.845 348.523 361.183 336.715 364.838 325.715C368.493 314.715 376.24 305.203 386.76 298.798C397.28 292.394 409.923 289.492 422.537 290.587C435.151 291.682 446.957 296.706 455.945 304.804C456.929 305.696 457.895 306.619 458.773 307.59C467.322 316.51 472.058 327.916 472.118 339.733V340.051Z" fill="#F37022" stroke="#263238" stroke-width="1.02934" stroke-miterlimit="10"/>
<path opacity="0.2" d="M542.305 368.15L564.607 384.452L550.945 410.975L522.568 406.358C516.389 414.189 509.143 421.282 501.004 427.468L508.713 452.749L480.705 467.395L460.247 448.944C450.235 452.097 439.851 454.18 429.307 455.153L419.684 479.813L387.461 477.218L382.667 450.982C372.55 448.402 362.828 444.685 353.729 439.917L329.794 456.172L304.982 437.307L317.836 413.029C315.647 410.545 313.569 407.992 311.602 405.371L370.639 366.16C376.913 375.356 386.323 382.447 397.442 386.359C408.562 390.27 420.785 390.788 432.258 387.834C443.732 384.88 453.83 378.616 461.023 369.99C468.216 361.365 472.111 350.848 472.118 340.035V339.717C472.058 327.9 467.322 316.494 458.772 307.574L531.875 258.987L522.673 273.108C528.743 280.857 533.672 289.292 537.336 298.198L566.626 300.331L572.456 329.162L545.852 340.051C545.931 349.513 544.74 358.949 542.305 368.15Z" fill="black"/>
<path d="M656.604 263.412L657.938 262.855C658.685 262.559 659.3 262.042 659.683 261.389C660.065 260.736 660.193 259.985 660.045 259.257L659.764 257.777C659.632 257.048 659.232 256.382 658.63 255.885C658.028 255.388 657.258 255.09 656.445 255.038L654.83 254.927C654.2 254.889 653.592 254.704 653.066 254.388C652.539 254.073 652.112 253.638 651.827 253.128C651.388 252.284 650.932 251.536 650.422 250.692C650.103 250.194 649.935 249.629 649.935 249.053C649.935 248.477 650.103 247.911 650.422 247.413L651.248 246.139C651.657 245.502 651.822 244.759 651.717 244.028C651.612 243.297 651.243 242.617 650.668 242.096L649.509 241.045C648.946 240.499 648.188 240.15 647.369 240.06C646.551 239.97 645.723 240.144 645.031 240.551L643.609 241.315C643.06 241.605 642.436 241.757 641.8 241.757C641.165 241.757 640.541 241.605 639.992 241.315C637.687 240.113 635.211 239.203 632.634 238.609C632.002 238.459 631.426 238.156 630.969 237.732C630.511 237.309 630.188 236.781 630.035 236.205L629.614 234.613C629.427 233.877 628.965 233.222 628.305 232.76C627.645 232.299 626.829 232.059 625.996 232.082H624.381C623.55 232.058 622.736 232.296 622.077 232.754C621.418 233.213 620.954 233.864 620.764 234.597L620.307 236.189C620.149 236.752 619.831 237.268 619.384 237.684C618.937 238.101 618.377 238.403 617.761 238.561C616.848 238.784 616.005 239.039 615.109 239.325C614.502 239.527 613.846 239.577 613.209 239.471C612.573 239.364 611.98 239.105 611.492 238.72L610.034 237.59C609.427 237.11 608.66 236.827 607.855 236.786C607.05 236.746 606.254 236.95 605.592 237.367L604.31 238.147C603.621 238.567 603.112 239.187 602.866 239.905C602.62 240.623 602.652 241.396 602.958 242.096L603.607 243.688C603.84 244.231 603.911 244.82 603.812 245.396C603.714 245.972 603.449 246.514 603.046 246.967C602.466 247.588 601.922 248.241 601.412 248.909C601.054 249.405 600.551 249.8 599.958 250.051C599.365 250.301 598.708 250.396 598.058 250.326L596.302 250.167C595.489 250.086 594.669 250.258 593.977 250.654C593.285 251.05 592.761 251.647 592.492 252.348L591.912 253.797C591.632 254.478 591.609 255.225 591.847 255.919C592.085 256.614 592.572 257.217 593.229 257.633L594.898 258.7C595.418 259.034 595.832 259.487 596.097 260.012C596.362 260.538 596.469 261.118 596.408 261.693C596.309 262.55 596.262 263.411 596.267 264.272C596.248 264.831 596.078 265.377 595.772 265.863C595.466 266.349 595.033 266.759 594.511 267.058L592.755 267.902C592.03 268.257 591.461 268.827 591.142 269.516C590.822 270.205 590.772 270.972 590.999 271.691L591.421 273.124C591.628 273.844 592.098 274.479 592.756 274.924C593.413 275.37 594.218 275.599 595.038 275.575H596.794C597.429 275.566 598.055 275.708 598.61 275.988C599.165 276.267 599.629 276.674 599.955 277.167C600.447 277.947 600.973 278.759 601.518 279.444C601.879 279.92 602.095 280.473 602.145 281.049C602.194 281.625 602.075 282.203 601.799 282.723L601.061 284.108C600.697 284.773 600.593 285.531 600.765 286.257C600.937 286.983 601.376 287.634 602.009 288.104L603.256 289.06C603.879 289.544 604.665 289.822 605.485 289.848C606.305 289.874 607.111 289.646 607.769 289.203L609.051 288.391C609.569 288.053 610.177 287.846 610.812 287.79C611.448 287.734 612.088 287.831 612.668 288.072C613.582 288.47 614.512 288.837 615.478 289.155C616.074 289.355 616.6 289.695 617.004 290.14C617.408 290.584 617.675 291.118 617.778 291.686L618.042 293.103C618.172 293.835 618.573 294.506 619.18 295.003C619.786 295.501 620.562 295.797 621.378 295.841L623.029 295.985C623.838 296.049 624.647 295.867 625.329 295.466C626.01 295.065 626.523 294.468 626.787 293.772L627.296 292.482C627.513 291.931 627.887 291.441 628.381 291.064C628.874 290.686 629.469 290.434 630.105 290.333C631.13 290.192 632.145 289.995 633.143 289.744C633.761 289.585 634.415 289.582 635.034 289.737C635.654 289.891 636.214 290.197 636.655 290.62L637.727 291.607C638.291 292.133 639.034 292.472 639.836 292.57C640.638 292.668 641.454 292.52 642.152 292.148L643.592 291.4C644.313 291.045 644.88 290.478 645.199 289.792C645.518 289.107 645.571 288.343 645.348 287.627L644.944 286.337C644.755 285.767 644.74 285.161 644.901 284.583C645.062 284.006 645.392 283.478 645.857 283.058C646.612 282.392 647.327 281.691 647.999 280.956C648.411 280.491 648.958 280.14 649.579 279.943C650.2 279.746 650.869 279.711 651.511 279.842L652.951 280.081C653.751 280.24 654.587 280.141 655.315 279.801C656.043 279.461 656.616 278.901 656.937 278.218L657.622 276.865C657.982 276.194 658.077 275.431 657.892 274.704C657.706 273.977 657.252 273.329 656.604 272.869L655.515 272.073C655.015 271.715 654.629 271.244 654.395 270.707C654.16 270.17 654.086 269.587 654.18 269.016C654.353 268.041 654.465 267.058 654.514 266.071C654.576 265.501 654.801 264.956 655.168 264.489C655.535 264.023 656.03 263.652 656.604 263.412ZM643.627 264.272C643.627 267.559 642.552 270.773 640.537 273.506C638.523 276.239 635.66 278.369 632.31 279.627C628.96 280.885 625.274 281.214 621.718 280.573C618.161 279.932 614.895 278.349 612.331 276.025C609.767 273.7 608.021 270.739 607.314 267.515C606.606 264.29 606.969 260.949 608.357 257.912C609.744 254.875 612.094 252.279 615.109 250.453C618.124 248.626 621.668 247.652 625.294 247.652C630.133 247.647 634.777 249.383 638.207 252.477C641.636 255.572 643.573 259.774 643.592 264.161L643.627 264.272Z" fill="#F37022" stroke="#263238" stroke-width="1.02934" stroke-miterlimit="10"/>
<path d="M681.117 150.142V151.049H153.474V150.142C153.472 147.795 153.98 145.47 154.969 143.301C155.958 141.132 157.409 139.161 159.239 137.501C161.069 135.84 163.241 134.523 165.633 133.625C168.024 132.726 170.588 132.263 173.177 132.263H661.345C663.939 132.255 666.51 132.711 668.91 133.606C671.31 134.501 673.491 135.817 675.328 137.478C677.165 139.139 678.622 141.113 679.616 143.286C680.609 145.46 681.12 147.789 681.117 150.142Z" fill="#263238"/>
<path d="M681.117 150.142V482.01C681.12 484.358 680.611 486.684 679.621 488.854C678.631 491.024 677.178 492.996 675.347 494.656C673.515 496.317 671.34 497.634 668.947 498.531C666.553 499.429 663.988 499.89 661.397 499.888H173.229C170.636 499.894 168.067 499.436 165.669 498.541C163.272 497.645 161.093 496.329 159.257 494.668C157.422 493.007 155.966 491.034 154.974 488.861C153.982 486.689 153.472 484.361 153.474 482.01V150.142C153.472 147.795 153.98 145.47 154.969 143.301C155.958 141.132 157.409 139.161 159.239 137.501C161.069 135.84 163.241 134.523 165.633 133.625C168.024 132.726 170.588 132.263 173.177 132.263H661.345C663.939 132.255 666.51 132.711 668.91 133.606C671.31 134.501 673.491 135.817 675.328 137.478C677.165 139.139 678.622 141.113 679.616 143.286C680.609 145.46 681.12 147.789 681.117 150.142Z" stroke="#263238" stroke-width="1.02934" stroke-linecap="round" stroke-linejoin="round"/>
<path d="M153.474 150.142H681.117" stroke="#263238" stroke-width="1.02934" stroke-linecap="round" stroke-linejoin="round"/>
<path d="M197.462 141.688C197.462 142.406 197.227 143.108 196.787 143.705C196.348 144.301 195.722 144.767 194.991 145.041C194.259 145.316 193.454 145.388 192.677 145.248C191.901 145.108 191.187 144.762 190.627 144.255C190.068 143.747 189.686 143.1 189.532 142.396C189.377 141.692 189.457 140.962 189.76 140.299C190.063 139.636 190.576 139.069 191.234 138.67C191.893 138.271 192.667 138.058 193.459 138.058C194.52 138.058 195.539 138.441 196.29 139.121C197.04 139.802 197.462 140.725 197.462 141.688Z" fill="#F37022"/>
<path d="M216.409 141.688C216.402 142.407 216.16 143.108 215.712 143.702C215.265 144.296 214.633 144.756 213.897 145.024C213.161 145.292 212.353 145.356 211.577 145.207C210.801 145.058 210.091 144.703 209.538 144.188C208.984 143.673 208.612 143.02 208.468 142.313C208.325 141.606 208.416 140.875 208.731 140.215C209.046 139.555 209.57 138.995 210.237 138.605C210.903 138.215 211.683 138.014 212.476 138.026C213.532 138.043 214.537 138.437 215.274 139.123C216.011 139.809 216.419 140.731 216.409 141.688Z" fill="#F37022"/>
<path d="M235.304 141.688C235.304 142.406 235.069 143.108 234.629 143.705C234.189 144.301 233.564 144.767 232.832 145.041C232.101 145.316 231.296 145.388 230.519 145.248C229.743 145.108 229.029 144.762 228.469 144.255C227.909 143.747 227.528 143.1 227.374 142.396C227.219 141.692 227.298 140.962 227.601 140.299C227.904 139.636 228.418 139.069 229.076 138.67C229.734 138.271 230.508 138.058 231.3 138.058C231.826 138.058 232.347 138.152 232.832 138.335C233.318 138.517 233.76 138.784 234.131 139.121C234.503 139.458 234.798 139.859 234.999 140.299C235.2 140.739 235.304 141.211 235.304 141.688Z" fill="#F37022"/>
<path d="M501.566 340.051C501.566 355.08 496.651 369.771 487.441 382.267C478.232 394.763 465.142 404.502 449.827 410.253C434.512 416.004 417.659 417.509 401.401 414.577C385.143 411.645 370.209 404.408 358.487 393.782C346.765 383.155 338.783 369.615 335.549 354.875C332.315 340.136 333.975 324.857 340.318 310.973C346.662 297.088 357.405 285.221 371.188 276.871C384.971 268.522 401.176 264.065 417.752 264.065C439.89 264.065 461.129 272.005 476.832 286.152C492.535 300.299 501.427 319.504 501.566 339.574V340.051Z" stroke="#263238" stroke-width="4.11736" stroke-miterlimit="10"/>
<path d="M812.677 168.752H514.368C503.486 168.752 494.665 176.749 494.665 186.614V246.648C494.665 256.514 503.486 264.511 514.368 264.511H812.677C823.558 264.511 832.379 256.514 832.379 246.648V186.614C832.379 176.749 823.558 168.752 812.677 168.752Z" fill="white" stroke="#263238" stroke-width="1.02934" stroke-miterlimit="10"/>
<path d="M553.772 216.209H783.931" stroke="#263238" stroke-width="1.02934" stroke-miterlimit="10"/>
<path d="M546.59 216.209L582.939 192.982H675.516L713.287 216.209" stroke="#263238" stroke-width="1.02934" stroke-miterlimit="10"/>
<path d="M720.452 216.209C720.452 217.498 720.03 218.757 719.24 219.829C718.45 220.9 717.327 221.734 716.014 222.227C714.701 222.719 713.256 222.847 711.862 222.594C710.468 222.342 709.189 221.72 708.185 220.808C707.181 219.896 706.499 218.734 706.224 217.47C705.948 216.206 706.093 214.896 706.639 213.707C707.186 212.517 708.109 211.501 709.292 210.788C710.476 210.074 711.866 209.695 713.287 209.698C715.189 209.702 717.011 210.39 718.354 211.611C719.697 212.832 720.452 214.485 720.452 216.209Z" fill="#F37022" stroke="#263238" stroke-width="1.02934" stroke-miterlimit="10"/>
<path d="M582.939 199.494C586.906 199.494 590.121 196.578 590.121 192.982C590.121 189.386 586.906 186.471 582.939 186.471C578.973 186.471 575.757 189.386 575.757 192.982C575.757 196.578 578.973 199.494 582.939 199.494Z" fill="#F37022" stroke="#263238" stroke-width="1.02934" stroke-miterlimit="10"/>
<path d="M682.68 192.982C682.684 194.271 682.265 195.532 681.477 196.606C680.689 197.679 679.568 198.516 678.255 199.011C676.942 199.505 675.496 199.636 674.101 199.385C672.707 199.134 671.425 198.514 670.42 197.602C669.414 196.691 668.73 195.529 668.453 194.264C668.177 193 668.32 191.689 668.866 190.499C669.412 189.309 670.335 188.292 671.519 187.578C672.703 186.863 674.094 186.484 675.516 186.487C677.414 186.491 679.234 187.177 680.577 188.394C681.919 189.611 682.676 191.261 682.68 192.982Z" fill="#F37022" stroke="#263238" stroke-width="1.02934" stroke-miterlimit="10"/>
<path d="M546.59 216.209L582.939 239.437H753.552L783.931 216.209" stroke="#263238" stroke-width="1.02934" stroke-miterlimit="10"/>
<path d="M645.699 239.437C645.699 240.724 645.278 241.983 644.488 243.054C643.699 244.125 642.578 244.96 641.265 245.452C639.953 245.945 638.509 246.074 637.116 245.823C635.722 245.572 634.443 244.951 633.438 244.041C632.434 243.13 631.75 241.97 631.473 240.707C631.196 239.444 631.338 238.135 631.881 236.945C632.425 235.755 633.346 234.738 634.527 234.023C635.708 233.307 637.096 232.925 638.517 232.925C640.422 232.925 642.248 233.611 643.595 234.833C644.942 236.054 645.699 237.71 645.699 239.437Z" fill="#F37022" stroke="#263238" stroke-width="1.02934" stroke-miterlimit="10"/>
<path d="M590.121 239.437C590.121 240.724 589.7 241.983 588.911 243.054C588.122 244.125 587 244.96 585.688 245.452C584.375 245.945 582.931 246.074 581.538 245.823C580.145 245.572 578.865 244.951 577.861 244.041C576.856 243.13 576.172 241.97 575.895 240.707C575.618 239.444 575.76 238.135 576.304 236.945C576.848 235.755 577.768 234.738 578.949 234.023C580.13 233.307 581.519 232.925 582.939 232.925C584.844 232.925 586.671 233.611 588.018 234.833C589.365 236.054 590.121 237.71 590.121 239.437Z" fill="#F37022" stroke="#263238" stroke-width="1.02934" stroke-miterlimit="10"/>
<path d="M760.734 239.437C760.734 240.724 760.313 241.983 759.524 243.054C758.735 244.125 757.613 244.96 756.301 245.452C754.989 245.945 753.544 246.074 752.151 245.823C750.758 245.572 749.478 244.951 748.474 244.041C747.47 243.13 746.785 241.97 746.508 240.707C746.231 239.444 746.373 238.135 746.917 236.945C747.461 235.755 748.381 234.738 749.562 234.023C750.743 233.307 752.132 232.925 753.552 232.925C755.457 232.925 757.284 233.611 758.631 234.833C759.978 236.054 760.734 237.71 760.734 239.437Z" fill="#F37022" stroke="#263238" stroke-width="1.02934" stroke-miterlimit="10"/>
<path d="M783.931 222.721C787.898 222.721 791.113 219.806 791.113 216.21C791.113 212.613 787.898 209.698 783.931 209.698C779.965 209.698 776.749 212.613 776.749 216.21C776.749 219.806 779.965 222.721 783.931 222.721Z" fill="#F37022" stroke="#263238" stroke-width="1.02934" stroke-miterlimit="10"/>
<path d="M553.772 216.209C553.772 217.498 553.351 218.757 552.561 219.829C551.771 220.9 550.648 221.734 549.335 222.227C548.021 222.719 546.576 222.847 545.183 222.594C543.789 222.342 542.509 221.72 541.506 220.808C540.502 219.896 539.819 218.734 539.544 217.47C539.269 216.206 539.414 214.896 539.96 213.707C540.506 212.517 541.43 211.501 542.613 210.788C543.796 210.074 545.187 209.695 546.608 209.698C548.51 209.702 550.332 210.39 551.675 211.611C553.018 212.832 553.772 214.485 553.772 216.209Z" fill="#F37022" stroke="#263238" stroke-width="1.02934" stroke-miterlimit="10"/>
<path d="M337.275 370.458H165.415C154.534 370.458 145.713 378.456 145.713 388.321V544.13C145.713 553.995 154.534 561.992 165.415 561.992H337.275C348.156 561.992 356.977 553.995 356.977 544.13V388.321C356.977 378.456 348.156 370.458 337.275 370.458Z" fill="white" stroke="#263238" stroke-width="1.02934" stroke-miterlimit="10"/>
<path d="M224.926 479.813L197.568 528.035H321.576" stroke="#263238" stroke-width="1.02934" stroke-linecap="round" stroke-linejoin="round"/>
<path d="M321.576 406.963L263.698 441.844L321.576 457.636" stroke="#263238" stroke-width="1.02934" stroke-linecap="round" stroke-linejoin="round"/>
<path d="M335.255 394.561H307.897V419.365H335.255V394.561Z" fill="#F37022" stroke="#263238" stroke-width="1.02934" stroke-miterlimit="10"/>
<path d="M335.255 445.235H307.897V470.038H335.255V445.235Z" fill="#F37022" stroke="#263238" stroke-width="1.02934" stroke-miterlimit="10"/>
<path d="M277.378 429.442H250.019V454.245H277.378V429.442Z" fill="#F37022" stroke="#263238" stroke-width="1.02934" stroke-miterlimit="10"/>
<path d="M238.605 467.411H211.247V492.214H238.605V467.411Z" fill="#F37022" stroke="#263238" stroke-width="1.02934" stroke-miterlimit="10"/>
<path d="M211.247 515.617H183.888V540.42H211.247V515.617Z" fill="#F37022" stroke="#263238" stroke-width="1.02934" stroke-miterlimit="10"/>
<path d="M335.255 515.617H307.897V540.42H335.255V515.617Z" fill="#F37022" stroke="#263238" stroke-width="1.02934" stroke-miterlimit="10"/>
<path d="M237.095 295.396H65.2354C54.3541 295.396 45.5331 303.393 45.5331 313.258V469.067C45.5331 478.932 54.3541 486.929 65.2354 486.929H237.095C247.976 486.929 256.797 478.932 256.797 469.067V313.258C256.797 303.393 247.976 295.396 237.095 295.396Z" fill="white" stroke="#263238" stroke-width="1.02934" stroke-miterlimit="10"/>
<path d="M208.42 313.926H67.887V323.797H208.42V313.926Z" fill="#F37022"/>
<path d="M149.084 330.181H67.887V340.051H149.084V330.181Z" fill="#F37022"/>
<path d="M115.176 346.435H67.887V356.305H115.176V346.435Z" fill="#F37022"/>
<path d="M145.713 362.673H67.887V372.544H145.713V362.673Z" fill="#F37022"/>
<path d="M189.209 378.928H67.887V388.798H189.209V378.928Z" fill="#F37022"/>
<path d="M149.084 395.166H67.887V405.037H149.084V395.166Z" fill="#F37022"/>
<path d="M124.536 411.421H67.887V421.291H124.536V411.421Z" fill="#F37022"/>
<path d="M159.603 427.675H67.887V437.545H159.603V427.675Z" fill="#F37022"/>
<path d="M179.077 443.913H67.887V453.784H179.077V443.913Z" fill="#F37022"/>
<path d="M208.42 460.168H67.887V470.038H208.42V460.168Z" fill="#F37022"/>
<path opacity="0.3" d="M208.42 313.926H67.887V323.797H208.42V313.926Z" fill="black"/>
<path opacity="0.3" d="M149.084 330.181H67.887V340.051H149.084V330.181Z" fill="black"/>
<path opacity="0.3" d="M115.176 346.435H67.887V356.305H115.176V346.435Z" fill="black"/>
<path opacity="0.3" d="M145.713 362.673H67.887V372.544H145.713V362.673Z" fill="black"/>
<path opacity="0.3" d="M189.209 378.928H67.887V388.798H189.209V378.928Z" fill="black"/>
<path opacity="0.3" d="M149.084 395.166H67.887V405.037H149.084V395.166Z" fill="black"/>
<path opacity="0.3" d="M124.536 411.421H67.887V421.291H124.536V411.421Z" fill="black"/>
<path opacity="0.3" d="M159.603 427.675H67.887V437.545H159.603V427.675Z" fill="black"/>
<path opacity="0.3" d="M179.077 443.913H67.887V453.784H179.077V443.913Z" fill="black"/>
<path opacity="0.3" d="M208.42 460.168H67.887V470.038H208.42V460.168Z" fill="black"/>
<path d="M158.374 278.6H209.508C211.977 278.6 214.344 279.489 216.089 281.071C217.835 282.654 218.815 284.8 218.815 287.038V295.427H149.067V287.038C149.067 284.8 150.047 282.654 151.793 281.071C153.538 279.489 155.905 278.6 158.374 278.6Z" fill="white" stroke="#263238" stroke-width="1.02934" stroke-miterlimit="10"/>
<path d="M123.798 278.6H174.336C176.888 278.6 179.335 279.519 181.14 281.155C182.945 282.791 183.959 285.01 183.959 287.324V295.443H114.14V287.324C114.14 286.176 114.39 285.039 114.876 283.978C115.362 282.918 116.074 281.954 116.971 281.144C117.868 280.333 118.933 279.691 120.105 279.255C121.276 278.818 122.531 278.596 123.798 278.6Z" fill="#F37022" stroke="#263238" stroke-width="1.02934" stroke-miterlimit="10"/>
<path d="M84.9377 278.6H136.705C139.091 278.591 141.383 279.442 143.079 280.964C144.774 282.486 145.734 284.556 145.748 286.719V295.396H75.947V286.719C75.9609 284.564 76.9137 282.501 78.5978 280.981C80.2819 279.46 82.5607 278.604 84.9377 278.6Z" fill="white" stroke="#263238" stroke-width="1.02934" stroke-miterlimit="10"/>
<path d="M743.104 629.7H781.508" stroke="#263238" stroke-width="1.02934" stroke-linecap="round" stroke-linejoin="round"/>
<path d="M138.145 629.7H722.893" stroke="#263238" stroke-width="1.02934" stroke-linecap="round" stroke-linejoin="round"/>
<path d="M732.568 609.306C732.568 609.306 739.364 604.26 742.612 609.768C745.404 614.544 738.714 619.877 731.075 619.877V623.905C731.075 623.905 747.441 624.303 748.635 611.806C749.83 599.308 732.498 602.763 732.498 602.763L732.568 609.306Z" fill="#F37022" stroke="#263238" stroke-width="1.02934" stroke-linecap="round" stroke-linejoin="round"/>
<path d="M732.006 629.62H699.239L694.323 592.32H736.923L732.006 629.62Z" fill="#F37022" stroke="#263238" stroke-width="1.02934" stroke-linecap="round" stroke-linejoin="round"/>
<path d="M736.853 590.536H694.393C693.151 590.536 692.145 591.449 692.145 592.574V592.765C692.145 593.891 693.151 594.803 694.393 594.803H736.853C738.094 594.803 739.1 593.891 739.1 592.765V592.574C739.1 591.449 738.094 590.536 736.853 590.536Z" fill="white" stroke="#263238" stroke-width="1.02934" stroke-linecap="round" stroke-linejoin="round"/>
<path d="M710.056 586.477C710.056 586.477 725.123 578.278 720.206 568.869C715.289 559.461 698.66 553.268 698.66 538.621C698.66 526.013 713.445 521.348 723.103 516.333" stroke="#263238" stroke-width="1.02934" stroke-linecap="round" stroke-linejoin="round"/>
<path d="M715.008 525.233C713.041 526.44 711.357 527.987 710.052 529.786C708.747 531.585 707.847 533.6 707.403 535.716C706.959 537.831 706.981 540.005 707.466 542.113C707.951 544.221 708.891 546.221 710.232 547.998" stroke="#263238" stroke-width="1.02934" stroke-linecap="round" stroke-linejoin="round"/>
<path d="M723.208 562.406C726.228 567.66 727.063 573.722 725.562 579.488" stroke="#263238" stroke-width="1.02934" stroke-linecap="round" stroke-linejoin="round"/>
<path d="M319.592 626.611C319.592 626.611 318.907 615.913 308.494 612.14C298.081 608.367 292.515 609.927 269.283 615.595C254.632 619.069 239.628 621.176 224.505 621.883V626.659L319.592 626.611Z" fill="white" stroke="#263238" stroke-width="1.02934" stroke-linecap="round" stroke-linejoin="round"/>
<path d="M319.258 626.611C319.258 626.611 319.943 615.913 330.356 612.14C340.769 608.367 346.318 609.927 369.568 615.595C384.241 619.076 399.269 621.183 414.416 621.883V626.659L319.258 626.611Z" fill="white" stroke="#263238" stroke-width="1.02934" stroke-linecap="round" stroke-linejoin="round"/>
<path d="M418.191 624.717H222.116V628.171H418.191V624.717Z" fill="#263238" stroke="#263238" stroke-width="1.02934" stroke-linecap="round" stroke-linejoin="round"/>
<path d="M324.316 626.42C325.249 623.897 326.759 621.58 328.747 619.621C330.735 617.663 333.156 616.106 335.853 615.053" stroke="#263238" stroke-width="1.02934" stroke-linecap="round" stroke-linejoin="round"/>
<path d="M330.251 625.656C331.637 623.491 333.518 621.62 335.769 620.17C338.02 618.72 340.587 617.725 343.298 617.25C349.778 616.168 356.38 618.189 362.491 620.434C368.602 622.679 379.296 625.656 385.828 625.656" stroke="#263238" stroke-width="1.02934" stroke-linecap="round" stroke-linejoin="round"/>
<path d="M262.346 624.685C268.839 624.049 275.203 622.603 281.259 620.387C284.906 618.834 288.674 617.525 292.532 616.47C296.434 615.427 300.632 615.81 304.227 617.537C305.773 618.448 307.134 619.596 308.248 620.928C309.798 622.703 311.079 624.657 312.059 626.739" stroke="#263238" stroke-width="1.02934" stroke-linecap="round" stroke-linejoin="round"/>
<path d="M298.204 619.877C300.341 620.129 302.315 621.046 303.788 622.472C305.213 623.901 306.456 625.471 307.493 627.153" stroke="#263238" stroke-width="1.02934" stroke-linecap="round" stroke-linejoin="round"/>
<path d="M468.15 624.892C460.977 627.872 453.21 629.497 445.322 629.668C433.17 629.668 408.446 606.902 408.446 606.902C408.446 606.902 407.55 604.451 409.482 595.281C411.413 586.111 429.57 501.973 429.57 501.973C429.57 501.973 431.713 482.392 443.987 470.372C456.261 458.353 480.354 454.07 480.354 454.07C480.354 454.07 533.631 433.04 563.518 439.535C593.37 450.281 625.979 461.202 636.866 469.672C647.753 478.141 674.515 546.088 683.786 580.984C683.786 580.984 663.364 620.323 644.311 631.371C625.259 642.42 579.34 638.822 579.34 638.822L468.15 624.892Z" fill="#F37022"/>
<path opacity="0.3" d="M461.389 556.515L453.68 463.781C448.634 465.634 444.161 468.572 440.646 472.341C437.131 476.11 434.68 480.598 433.504 485.417C429.518 502.005 405.408 604.1 408.393 606.934C411.378 609.768 427.094 621.978 427.094 621.978C427.094 621.978 444.04 635.112 461.389 627.264C478.738 619.415 461.389 556.515 461.389 556.515Z" fill="black"/>
<path opacity="0.3" d="M537.88 472.378C536.985 475.148 533.139 476.04 529.943 476.072C520.759 476.162 511.852 473.219 504.885 467.793C503.621 466.79 481.021 479.447 478.422 480.704C474.313 482.71 470.292 484.907 466.13 486.77C462.232 488.505 458.544 489.365 455.998 492.867C454.31 495.449 453.039 498.237 452.223 501.146C446.744 517.416 440.967 533.638 435.98 550.02C431.66 564.205 425.848 579.902 426.093 594.787C426.096 595.852 426.178 596.916 426.339 597.971C429.851 616.995 468.167 624.892 468.167 624.892C468.167 624.892 454.611 632.422 445.339 629.668C436.067 626.914 414.398 615.674 407.568 605.167L426.374 516.015C426.374 516.015 426.146 473.031 460.318 460.295C494.49 447.559 507.905 445.601 507.905 445.601L537.88 472.378Z" fill="black"/>
<path opacity="0.3" d="M663.979 612.617C663.979 612.617 678.905 597.669 683.734 581.016C683.734 581.016 660.906 512.656 654.97 499.824C649.035 486.993 639.43 472.426 632.704 466.185L621.782 606.886L619.482 636.497C619.482 636.497 631.774 636.959 640.29 633.313C648.807 629.668 663.979 612.617 663.979 612.617Z" fill="black"/>
<path d="M619.482 636.545L632.704 466.201C632.704 466.201 568.681 439.137 551.928 436.558C535.176 433.979 453.821 463.049 453.821 463.049L465.656 626.42" stroke="#263238" stroke-width="1.02934" stroke-linecap="round" stroke-linejoin="round"/>
<path d="M504.077 353.424L497.51 382C497.51 382 489.081 376.603 487.29 382.701C485.499 388.798 490.978 397.188 501.566 397.65C501.566 397.65 504.446 410.593 513.858 419.381C518.289 423.667 522.979 427.728 527.906 431.543C527.906 431.543 531.611 453.242 543.71 454.07C555.809 454.898 558.162 445.028 560.603 431.305C560.603 431.305 571.051 414.875 574.107 405.992C574.107 405.992 586.925 397.889 578.374 386.06C578.374 386.06 582.606 357.77 575.248 352.994C567.89 348.218 516.914 350.654 504.077 353.424Z" fill="white"/>
<path d="M543.113 456.331C543.113 456.331 539.057 474.862 536.528 475.323C534 475.785 523.99 467.125 515.246 456.331C506.501 445.537 507.853 445.521 507.853 445.521C507.853 445.521 511.909 431.352 515.246 429.283C518.582 427.213 530.611 427.468 530.611 427.468L556.951 426.561C556.951 426.561 565.731 425.43 571.157 428.598C576.583 431.766 579.217 445.521 579.217 445.521C579.217 445.521 563.413 471.933 550.524 475.323C547.65 469.128 545.176 462.786 543.113 456.331Z" fill="white"/>
<path d="M456.771 595.472L460.265 551.023" stroke="#263238" stroke-width="1.02934" stroke-miterlimit="10"/>
<path d="M579.217 361.607C579.217 361.607 564.256 366.86 551.033 365.857C551.033 365.857 537.073 378.593 519.197 371.031C519.197 371.031 503.077 410.609 540.04 436.494C530.691 433.243 522.327 428.024 515.638 421.268C508.949 414.511 504.126 406.411 501.566 397.634C501.566 397.634 491.03 399.114 487.29 384.898C487.29 384.898 484.252 379.405 498.107 379.374L497.51 351.832L533.104 358.311L558.654 354.92L579.217 361.607Z" fill="#F37022"/>
<path opacity="0.4" d="M579.217 361.607C579.217 361.607 564.256 366.86 551.033 365.857C551.033 365.857 537.073 378.593 519.197 371.031C519.197 371.031 506.167 413.411 538.513 435.778C538.513 435.778 509.17 426.56 501.549 397.57C501.549 397.57 491.118 396.567 487.273 384.834C487.273 384.834 484.235 379.342 498.09 379.31L497.492 351.768L533.087 358.248L558.636 354.857L579.217 361.607Z" fill="white"/>
<path d="M538.53 416.467C539.69 417.317 540.903 418.103 542.165 418.823C542.99 419.301 544.237 419.683 544.817 418.983C545.015 418.697 545.118 418.365 545.115 418.027C545.642 410.211 543.622 402.314 544.852 394.561" stroke="#263238" stroke-width="1.02934" stroke-linecap="round" stroke-linejoin="round"/>
<path d="M550.524 390.12C550.524 390.12 554.808 381.555 565.854 389.244" stroke="#263238" stroke-width="2.05868" stroke-linecap="round" stroke-linejoin="round"/>
<path d="M536.634 391.632C536.634 391.632 528.556 382.526 518.547 391.919" stroke="#263238" stroke-width="2.05868" stroke-linecap="round" stroke-linejoin="round"/>
<path d="M525.729 430.174C525.729 430.174 530.031 453.529 545.203 454.245C557.495 454.818 559.918 435.507 560.392 428.598" stroke="#263238" stroke-width="1.02934" stroke-linecap="round" stroke-linejoin="round"/>
<path d="M499.582 384.595C499.582 384.595 492.892 377.352 488.361 380.886C483.831 384.42 490.626 399.99 501.566 397.634" stroke="#263238" stroke-width="1.02934" stroke-linecap="round" stroke-linejoin="round"/>
<path d="M528.556 419.365C531.857 422.973 536.373 425.501 541.41 426.56" stroke="#263238" stroke-width="1.02934" stroke-linecap="round" stroke-linejoin="round"/>
<path d="M527.819 405.817C528.779 405.817 529.557 404.32 529.557 402.473C529.557 400.627 528.779 399.13 527.819 399.13C526.858 399.13 526.08 400.627 526.08 402.473C526.08 404.32 526.858 405.817 527.819 405.817Z" fill="#263238"/>
<path d="M557.741 402.474C557.741 404.32 556.951 405.817 555.985 405.817C555.019 405.817 554.229 404.32 554.229 402.474C554.229 400.627 555.001 399.114 555.985 399.114C556.968 399.114 557.741 400.627 557.741 402.474Z" fill="#263238"/>
<path d="M543.605 454.054C543.605 454.054 539.391 474.862 536.581 475.323C533.771 475.785 512.155 458.018 507.906 445.521C507.906 445.521 512.471 429.187 516.686 428.598C518.67 428.312 520.953 428.041 522.761 427.834" stroke="#263238" stroke-width="1.02934" stroke-linecap="round" stroke-linejoin="round"/>
<path d="M543.605 454.054C543.605 454.054 547.679 474.862 550.524 475.323C553.368 475.785 574.967 458.018 579.217 445.521C579.217 445.521 574.054 429.299 570.138 427.93C567.639 427.08 565.066 426.42 562.447 425.955" stroke="#263238" stroke-width="1.02934" stroke-linecap="round" stroke-linejoin="round"/>
<path d="M503.638 402.872C506.413 407.234 509.855 391.871 508.397 386.952C507.414 383.768 505.5 380.679 505.324 377.4C505.148 373.674 507.08 370.188 508.59 366.701C510.1 363.215 510.891 359.06 508.59 355.939C516.565 361.053 525.927 364.097 535.668 364.743C538.152 365.06 540.682 364.875 543.078 364.202C544.265 363.848 545.332 363.222 546.174 362.386C547.017 361.549 547.608 360.53 547.89 359.426C557.021 360.477 566.064 361.559 575.16 360.429C582.799 359.49 594.669 357.738 598.585 350.67C604.327 340.354 589.542 329.64 580.815 326.026C559.743 317.286 531.26 315.805 512.225 329.528C510.272 331.063 508.226 332.498 506.097 333.826C501.9 336.214 492.347 338.061 488.993 341.388C484.498 345.862 490.135 380.408 490.135 380.408C490.135 380.408 497.475 377.32 500.495 387.62C502.602 394.561 500.829 398.478 503.638 402.872Z" fill="#263238"/>
<path d="M572.684 358.2C572.561 358.628 572.479 359.065 572.438 359.505C572.242 363.424 572.759 367.345 573.966 371.111C574.44 372.799 575.125 374.438 575.424 376.158C576.126 380.249 576.126 384.197 579.462 387.525C579.462 387.525 585.854 367.258 583.273 352.771C582.974 351.179 582.395 346.881 579.568 347.661C577.496 348.234 576.056 351.45 575.143 353.01C574.124 354.657 573.3 356.396 572.684 358.2Z" fill="#263238"/>
<path d="M484.463 339.096C487.289 337.317 490.542 336.172 493.952 335.757C497.363 335.342 500.833 335.668 504.077 336.708C509.18 328.469 516.284 321.392 524.851 316.012" stroke="#263238" stroke-width="1.02934" stroke-linecap="round" stroke-linejoin="round"/>
<path opacity="0.47" d="M511.927 334.224C511.927 334.224 546.344 356.417 567.188 350.924C588.032 345.432 582.202 329.178 582.202 329.178" stroke="white" stroke-width="1.02934" stroke-linecap="round" stroke-linejoin="round"/>
<path opacity="0.47" d="M515.246 330.499C515.246 330.499 558.461 348.505 565.731 323.017" stroke="white" stroke-width="1.02934" stroke-linecap="round" stroke-linejoin="round"/>
<path d="M525.729 430.174C525.729 430.174 533.947 444.645 540.392 444.407C546.836 444.168 558.654 428.598 558.654 428.598C558.654 428.598 552.28 436.049 542.604 436.813C536.23 437.322 525.729 430.174 525.729 430.174Z" fill="#263238"/>
<path d="M575.459 535.835L576.793 535.278C577.541 534.978 578.154 534.458 578.533 533.802C578.913 533.146 579.036 532.392 578.883 531.664L578.62 530.2C578.49 529.47 578.091 528.802 577.488 528.304C576.885 527.807 576.114 527.51 575.301 527.461L573.685 527.334C573.047 527.293 572.433 527.099 571.905 526.772C571.377 526.445 570.955 525.996 570.682 525.471C570.243 524.644 569.787 523.879 569.278 523.052C568.958 522.554 568.79 521.988 568.79 521.412C568.79 520.836 568.958 520.27 569.278 519.772L570.103 518.498C570.507 517.857 570.67 517.113 570.565 516.38C570.46 515.648 570.095 514.966 569.523 514.439L568.364 513.404C567.801 512.858 567.043 512.51 566.225 512.419C565.406 512.329 564.578 512.503 563.887 512.911L562.464 513.675C561.915 513.964 561.291 514.117 560.656 514.117C560.02 514.117 559.396 513.964 558.847 513.675C556.543 512.468 554.067 511.552 551.489 510.952C550.859 510.803 550.285 510.503 549.828 510.082C549.37 509.662 549.046 509.138 548.89 508.564L548.469 506.972C548.295 506.232 547.835 505.571 547.172 505.11C546.509 504.649 545.686 504.418 544.852 504.457H543.236C542.404 504.417 541.584 504.646 540.921 505.104C540.258 505.562 539.797 506.219 539.619 506.956L539.162 508.548C539.016 509.115 538.701 509.633 538.252 510.049C537.803 510.464 537.237 510.76 536.616 510.905C535.703 511.143 534.86 511.382 533.947 511.685C533.341 511.882 532.689 511.929 532.057 511.823C531.424 511.717 530.834 511.46 530.347 511.08L528.89 509.949C528.293 509.451 527.525 509.154 526.715 509.111C525.905 509.067 525.104 509.279 524.447 509.711L523.165 510.507C522.458 510.911 521.934 511.531 521.686 512.255C521.438 512.978 521.483 513.758 521.813 514.455L522.463 516.047C522.697 516.59 522.769 517.179 522.67 517.755C522.572 518.332 522.306 518.874 521.901 519.326C521.318 519.952 520.772 520.605 520.268 521.284C519.9 521.771 519.394 522.158 518.804 522.405C518.213 522.651 517.56 522.748 516.914 522.685L515.158 522.542C514.341 522.443 513.512 522.607 512.816 523.005C512.119 523.404 511.599 524.012 511.347 524.723L510.768 526.156C510.487 526.837 510.464 527.584 510.702 528.279C510.941 528.973 511.427 529.576 512.085 529.993L513.841 531.059C514.36 531.398 514.772 531.854 515.037 532.382C515.302 532.909 515.41 533.491 515.351 534.068C515.242 534.919 515.195 535.775 515.21 536.631C515.194 537.191 515.025 537.738 514.719 538.225C514.412 538.711 513.978 539.12 513.454 539.417L511.698 540.277C510.977 540.632 510.41 541.199 510.091 541.885C509.772 542.57 509.719 543.334 509.942 544.05L510.364 545.483C510.568 546.204 511.038 546.841 511.696 547.287C512.354 547.733 513.16 547.961 513.981 547.935H515.737C516.371 547.928 516.996 548.072 517.55 548.351C518.104 548.63 518.569 549.035 518.898 549.527C519.39 550.323 519.899 551.119 520.461 551.803C520.822 552.279 521.038 552.833 521.088 553.409C521.137 553.985 521.018 554.562 520.742 555.083L520.004 556.484C519.64 557.149 519.535 557.906 519.708 558.632C519.88 559.358 520.319 560.009 520.952 560.479L522.199 561.435C522.821 561.915 523.603 562.191 524.419 562.217C525.236 562.243 526.037 562.018 526.695 561.578L527.994 560.75C528.498 560.423 529.088 560.223 529.705 560.17C530.322 560.117 530.943 560.213 531.506 560.448C532.437 560.846 533.367 561.196 534.333 561.53C534.927 561.729 535.452 562.067 535.856 562.508C536.259 562.95 536.528 563.48 536.634 564.046L536.897 565.478C537.033 566.208 537.436 566.875 538.042 567.372C538.647 567.869 539.419 568.166 540.233 568.217L541.884 568.344C542.694 568.415 543.507 568.234 544.189 567.832C544.871 567.43 545.384 566.831 545.642 566.131L546.151 564.857C546.366 564.305 546.74 563.815 547.234 563.437C547.728 563.059 548.324 562.808 548.961 562.708C549.984 562.559 550.998 562.363 551.999 562.119C552.616 561.97 553.265 561.971 553.882 562.122C554.498 562.273 555.06 562.569 555.511 562.979L556.582 563.966C557.146 564.492 557.889 564.831 558.691 564.929C559.493 565.028 560.309 564.879 561.007 564.507L562.447 563.775C563.172 563.419 563.741 562.85 564.061 562.161C564.38 561.472 564.43 560.704 564.203 559.986L563.799 558.712C563.61 558.142 563.595 557.536 563.756 556.958C563.917 556.381 564.247 555.854 564.712 555.433C565.467 554.762 566.182 554.055 566.854 553.315C567.273 552.859 567.822 552.514 568.44 552.318C569.059 552.121 569.724 552.081 570.366 552.201L571.824 552.456C572.625 552.596 573.454 552.487 574.177 552.146C574.901 551.805 575.476 551.252 575.81 550.577L576.495 549.24C576.854 548.569 576.95 547.806 576.764 547.079C576.579 546.352 576.124 545.704 575.476 545.244L574.388 544.432C573.882 544.082 573.491 543.615 573.256 543.079C573.021 542.544 572.951 541.96 573.053 541.391C573.225 540.416 573.336 539.433 573.387 538.446C573.456 537.886 573.682 537.352 574.045 536.895C574.408 536.437 574.895 536.073 575.459 535.835ZM553.702 536.679C553.705 538.393 553.148 540.069 552.1 541.495C551.053 542.921 549.562 544.034 547.817 544.692C546.072 545.35 544.151 545.523 542.296 545.191C540.442 544.859 538.738 544.035 537.401 542.825C536.063 541.614 535.151 540.071 534.781 538.39C534.411 536.71 534.6 534.968 535.322 533.384C536.045 531.801 537.269 530.448 538.84 529.495C540.412 528.543 542.259 528.035 544.149 528.035C546.67 528.03 549.09 528.933 550.878 530.545C552.666 532.157 553.675 534.346 553.684 536.631L553.702 536.679Z" fill="#263238"/>
<path d="M457.14 589.486C455.706 590.918 454.137 592.234 452.451 593.418C447.88 597.433 444.451 602.393 442.459 607.873C441.475 610.408 441.475 613.171 442.459 615.706C444.584 620.482 451.327 625.258 456.718 622.201" stroke="#263238" stroke-width="1.02934" stroke-linecap="round" stroke-linejoin="round"/>
<path d="M456.718 581.08C451.573 580.348 446.516 583.054 443.004 586.509C439.492 589.963 437.051 594.23 433.855 597.939" stroke="#263238" stroke-width="1.02934" stroke-linecap="round" stroke-linejoin="round"/>
<path d="M456.314 628.951C449.465 630.159 442.374 629.471 435.962 626.977C431.9 624.997 428.115 622.581 424.689 619.781L411.343 609.784C409.201 608.192 406.83 605.883 407.708 603.495C407.708 603.495 430.009 496.943 433.504 485.417C437.56 472.123 453.891 463.129 453.891 463.129" stroke="#263238" stroke-width="1.02934" stroke-linecap="round" stroke-linejoin="round"/>
<path d="M623.644 590.632C629.386 594.547 633.778 599.865 636.304 605.963C638.302 611.62 639.638 617.453 640.29 623.363C636.778 625.115 629.754 629.731 623.644 629.731" stroke="#263238" stroke-width="1.02934" stroke-linecap="round" stroke-linejoin="round"/>
<path d="M624.398 581.765C629.807 580.459 635.163 583.802 639.254 587.273C643.346 590.743 647.543 594.771 653.109 595.312" stroke="#263238" stroke-width="1.02934" stroke-linecap="round" stroke-linejoin="round"/>
<path d="M625.435 637.134C635.971 636.131 645.453 630.926 653.039 624.287C660.625 617.648 666.455 609.593 672.232 601.617C676.92 595.153 681.679 588.515 683.734 581.016C683.734 581.016 665.243 525.599 654.97 499.824C644.259 473.031 632.704 466.185 632.704 466.185" stroke="#263238" stroke-width="1.02934" stroke-linecap="round" stroke-linejoin="round"/>
<path d="M624.398 581.764C633.934 574.505 648.561 580.379 658.816 585.251" stroke="#263238" stroke-width="1.02934" stroke-linecap="round" stroke-linejoin="round"/>
<path d="M623.626 552.105H457.139V638.854H623.626V552.105Z" fill="white"/>
<path d="M624.399 638.854H456.314V643.391H624.399V638.854Z" fill="#263238"/>
<path d="M456.314 638.854L623.643 552.105L624.399 638.854H456.314Z" fill="#263238"/>
<path opacity="0.9" d="M456.314 638.854L623.643 552.105L624.399 638.854H456.314Z" fill="white"/>
<path d="M552.662 603.157C558.202 598.133 558.203 589.988 552.662 584.965C547.121 579.942 538.137 579.942 532.596 584.965C527.055 589.988 527.055 598.133 532.596 603.157C538.137 608.18 547.121 608.18 552.662 603.157Z" fill="#263238"/>
<path d="M623.626 552.105H457.139V638.854H623.626V552.105Z" stroke="#263238" stroke-width="1.02934" stroke-linecap="round" stroke-linejoin="round"/>
<path d="M498.809 375.807C498.809 375.807 502.462 406.055 507.098 411.516C511.733 416.977 526.624 436.733 542.85 436.431C559.075 436.128 569.664 417.215 572.316 409.112C575.616 398.85 577.613 388.28 578.268 377.606" stroke="#263238" stroke-width="1.02934" stroke-linecap="round" stroke-linejoin="round"/>
<path d="M574.001 405.96C574.001 405.96 586.03 400.324 578.268 386.028" stroke="#263238" stroke-width="1.02934" stroke-linecap="round" stroke-linejoin="round"/>
</svg>
