<svg width="25" height="25" viewBox="0 0 25 25" fill="none" xmlns="http://www.w3.org/2000/svg">
<g clip-path="url(#clip0_122_2)">
<path d="M24.0833 10.3229L20.0521 6.25002C19.9552 6.15238 19.84 6.07489 19.7131 6.02201C19.5862 5.96912 19.45 5.94189 19.3125 5.94189C19.175 5.94189 19.0388 5.96912 18.9119 6.02201C18.785 6.07489 18.6698 6.15238 18.5729 6.25002C18.3789 6.44519 18.27 6.7092 18.27 6.98439C18.27 7.25959 18.3789 7.5236 18.5729 7.71877L22.2813 11.4584H1.04167C0.7654 11.4584 0.500448 11.5681 0.305097 11.7634C0.109747 11.9588 0 12.2238 0 12.5C0 12.7763 0.109747 13.0412 0.305097 13.2366C0.500448 13.4319 0.7654 13.5417 1.04167 13.5417H22.3438L18.5729 17.3021C18.4753 17.3989 18.3978 17.5141 18.3449 17.6411C18.292 17.768 18.2648 17.9042 18.2648 18.0417C18.2648 18.1792 18.292 18.3153 18.3449 18.4423C18.3978 18.5692 18.4753 18.6844 18.5729 18.7813C18.6698 18.8789 18.785 18.9564 18.9119 19.0093C19.0388 19.0622 19.175 19.0894 19.3125 19.0894C19.45 19.0894 19.5862 19.0622 19.7131 19.0093C19.84 18.9564 19.9552 18.8789 20.0521 18.7813L24.0833 14.7396C24.6685 14.1537 24.9973 13.3594 24.9973 12.5313C24.9973 11.7031 24.6685 10.9089 24.0833 10.3229Z" />
</g>
<defs>
<clipPath id="clip0_122_2">
<rect width="25" height="25" fill="white"/>
</clipPath>
</defs>
</svg>
