<svg width="50" height="50" viewBox="0 0 50 50" fill="none" xmlns="http://www.w3.org/2000/svg">
<g id="file-download (1) 1" clip-path="url(#clip0_123_71)">
<path id="Vector" d="M30.6394 0H9.37484C6.50192 0 4.1665 2.3375 4.1665 5.20833V50H45.8332V15.1937L30.6394 0ZM31.2498 3.55625L42.2769 14.5833H31.2498V3.55625ZM6.24984 47.9167V5.20833C6.24984 3.48542 7.65192 2.08333 9.37484 2.08333H29.1665V16.6667H43.7498V47.9167H6.24984ZM33.1332 32.3312L34.6061 33.8042L27.9332 40.4771C27.1332 41.2771 26.0811 41.6771 25.029 41.6771C23.9769 41.6771 22.9248 41.2771 22.1248 40.4771L15.454 33.8042L16.9269 32.3312L23.5978 39.0042C23.7165 39.1229 23.8478 39.225 23.9873 39.3083V22.9167H26.0707V39.3083C26.2082 39.225 26.3394 39.125 26.4603 39.0042L33.1332 32.3312Z" fill="#F37022"/>
</g>
<defs>
<clipPath id="clip0_123_71">
<rect width="50" height="50" fill="white"/>
</clipPath>
</defs>
</svg>
