<svg xmlns="http://www.w3.org/2000/svg" width="21" height="18" viewBox="0 0 21 18" fill="none">
<path d="M19.7514 6.87764C18.998 5.66781 18.0477 4.58713 16.9382 3.6785L19.2749 1.38696C19.4269 1.23261 19.511 1.02588 19.5091 0.811294C19.5072 0.59671 19.4195 0.391444 19.2647 0.239705C19.11 0.0879664 18.9007 0.00189561 18.6819 3.09378e-05C18.4631 -0.00183373 18.2523 0.0806569 18.0949 0.229736L15.5537 2.72505C13.9784 1.80747 12.1775 1.32923 10.3453 1.34195C5.1787 1.34195 2.23444 4.81035 0.939238 6.87764C0.5391 7.51232 0.327148 8.24376 0.327148 8.98994C0.327148 9.73613 0.5391 10.4676 0.939238 11.1022C1.69262 12.3121 2.64294 13.3928 3.75247 14.3014L1.41576 16.5929C1.33605 16.6684 1.27248 16.7587 1.22874 16.8586C1.185 16.9584 1.16198 17.0658 1.16102 17.1745C1.16005 17.2832 1.18117 17.3909 1.22313 17.4915C1.26509 17.5921 1.32706 17.6835 1.40542 17.7603C1.48377 17.8371 1.57695 17.8979 1.67951 17.9391C1.78207 17.9802 1.89197 18.0009 2.00278 18C2.11359 17.999 2.22309 17.9764 2.32491 17.9336C2.42673 17.8907 2.51881 17.8283 2.5958 17.7502L5.14281 15.2524C6.71614 16.1698 8.51491 16.6489 10.3453 16.6379C15.512 16.6379 18.4562 13.1695 19.7514 11.1022C20.1516 10.4676 20.3635 9.73613 20.3635 8.98994C20.3635 8.24376 20.1516 7.51232 19.7514 6.87764ZM2.36129 10.2454C2.12356 9.86813 1.99764 9.43342 1.99764 8.98994C1.99764 8.54647 2.12356 8.11176 2.36129 7.73451C3.47457 5.96184 5.9907 2.97876 10.3453 2.97876C11.7309 2.97115 13.097 3.29862 14.3227 3.9322L12.6428 5.57965C11.8416 5.058 10.881 4.82426 9.92408 4.91809C8.96714 5.01192 8.07277 5.42754 7.39273 6.09443C6.7127 6.76132 6.28888 7.6384 6.1932 8.57684C6.09752 9.51528 6.33587 10.4573 6.86781 11.243L4.94002 13.1335C3.91779 12.3231 3.04548 11.3461 2.36129 10.2454ZM12.8489 8.98994C12.8489 9.64111 12.5852 10.2656 12.1157 10.726C11.6461 11.1865 11.0093 11.4452 10.3453 11.4452C9.97355 11.4437 9.60693 11.3598 9.27295 11.1996L12.5986 7.93829C12.7619 8.26582 12.8475 8.62535 12.8489 8.98994ZM7.84171 8.98994C7.84171 8.33878 8.10549 7.71429 8.575 7.25384C9.04452 6.7934 9.68133 6.53473 10.3453 6.53473C10.7171 6.53614 11.0837 6.62008 11.4177 6.78025L8.09207 10.0416C7.92875 9.71407 7.84315 9.35453 7.84171 8.98994ZM18.3294 10.2454C17.2161 12.018 14.7 15.0011 10.3453 15.0011C8.95977 15.0087 7.59366 14.6813 6.36792 14.0477L8.04784 12.4002C8.84906 12.9219 9.80963 13.1556 10.7666 13.0618C11.7235 12.968 12.6179 12.5523 13.2979 11.8855C13.978 11.2186 14.4018 10.3415 14.4975 9.40305C14.5931 8.4646 14.3548 7.5226 13.8229 6.73687L15.7506 4.84636C16.7729 5.65681 17.6452 6.63379 18.3294 7.73451C18.5671 8.11176 18.693 8.54647 18.693 8.98994C18.693 9.43342 18.5671 9.86813 18.3294 10.2454Z" fill="black"/>
</svg>